<svg width="22" height="39" viewBox="0 0 22 39" fill="none" xmlns="http://www.w3.org/2000/svg">
<path fill-rule="evenodd" clip-rule="evenodd" d="M10.7883 38.7407L14.039 38.7419C14.6233 38.7458 15.1988 38.5995 15.7103 38.3172C16.2219 38.0349 16.6524 37.6259 16.9606 37.1295C19.282 33.343 21.2694 27.6335 21.2694 21.2433C21.2694 15.5387 19.3179 10.4244 17.2081 6.75789C16.1501 4.9203 15.029 3.40567 14.044 2.32415C13.2161 1.41711 12.0975 0.241549 10.7697 0.242787C9.44071 0.242786 8.32331 1.41711 7.49422 2.32539C6.50922 3.40444 5.38934 4.9203 4.33133 6.75789C2.22026 10.4257 0.270065 15.5387 0.268827 21.2421C0.270064 27.6335 2.25739 33.343 4.57758 37.1283C4.88575 37.6251 5.31638 38.0344 5.82818 38.317C6.33999 38.5995 6.9158 38.7458 7.50041 38.7419L10.7499 38.7419C10.7631 38.7423 10.7763 38.7423 10.7895 38.7419L10.7883 38.7407ZM3.76954 21.2433C3.76954 16.3159 5.46482 11.8017 7.36429 8.50392C7.92114 7.53624 8.48664 6.6886 9.01998 5.97707L9.01874 35.2412L7.52639 35.2412C5.53412 31.967 3.7683 26.912 3.7683 21.2421L3.76954 21.2433ZM12.5207 35.2412L12.517 5.97707C13.1187 6.78563 13.6716 7.62941 14.1727 8.50391C16.0709 11.8029 17.7662 16.3146 17.7674 21.2433C17.7674 26.9108 16.0016 31.9682 14.0093 35.2425H12.517L12.5207 35.2412Z" fill="white"/>
</svg>
